<svg width="25" height="28" viewBox="0 0 25 28" fill="none" xmlns="http://www.w3.org/2000/svg">
<path d="M7.35714 7.92857V5.78571C7.35714 5.43214 7.64643 5.14286 8 5.14286H10.1429C10.4964 5.14286 10.7857 5.43214 10.7857 5.78571V7.92857C10.7857 8.28214 10.4964 8.57143 10.1429 8.57143H8C7.64643 8.57143 7.35714 8.28214 7.35714 7.92857ZM14.8571 8.57143H17C17.3536 8.57143 17.6429 8.28214 17.6429 7.92857V5.78571C17.6429 5.43214 17.3536 5.14286 17 5.14286H14.8571C14.5036 5.14286 14.2143 5.43214 14.2143 5.78571V7.92857C14.2143 8.28214 14.5036 8.57143 14.8571 8.57143ZM8 13.7143H10.1429C10.4964 13.7143 10.7857 13.425 10.7857 13.0714V10.9286C10.7857 10.575 10.4964 10.2857 10.1429 10.2857H8C7.64643 10.2857 7.35714 10.575 7.35714 10.9286V13.0714C7.35714 13.425 7.64643 13.7143 8 13.7143ZM14.8571 13.7143H17C17.3536 13.7143 17.6429 13.425 17.6429 13.0714V10.9286C17.6429 10.575 17.3536 10.2857 17 10.2857H14.8571C14.5036 10.2857 14.2143 10.575 14.2143 10.9286V13.0714C14.2143 13.425 14.5036 13.7143 14.8571 13.7143ZM10.7857 18.2143V16.0714C10.7857 15.7179 10.4964 15.4286 10.1429 15.4286H8C7.64643 15.4286 7.35714 15.7179 7.35714 16.0714V18.2143C7.35714 18.5679 7.64643 18.8571 8 18.8571H10.1429C10.4964 18.8571 10.7857 18.5679 10.7857 18.2143ZM14.8571 18.8571H17C17.3536 18.8571 17.6429 18.5679 17.6429 18.2143V16.0714C17.6429 15.7179 17.3536 15.4286 17 15.4286H14.8571C14.5036 15.4286 14.2143 15.7179 14.2143 16.0714V18.2143C14.2143 18.5679 14.5036 18.8571 14.8571 18.8571ZM24.5 25.5V27.4286H0.5V25.5C0.5 25.1464 0.789286 24.8571 1.14286 24.8571H2.1875V1.28571C2.1875 0.573214 2.76071 0 3.47321 0H21.5268C22.2393 0 22.8125 0.573214 22.8125 1.28571V24.8571H23.8571C24.2107 24.8571 24.5 25.1464 24.5 25.5ZM4.75893 24.8036H10.7857V21.2143C10.7857 20.8607 11.075 20.5714 11.4286 20.5714H13.5714C13.925 20.5714 14.2143 20.8607 14.2143 21.2143V24.8036H20.2411V2.625L4.78571 2.57143L4.75893 24.8036Z" fill="#00325A" fill-opacity="0.5"/>
</svg>
