<svg width="25" height="25" viewBox="0 0 25 25" fill="none" xmlns="http://www.w3.org/2000/svg">
<path d="M12.5 5.67859C12.5 5.47968 12.421 5.28891 12.2803 5.14826C12.1397 5.00761 11.9489 4.92859 11.75 4.92859C11.5511 4.92859 11.3603 5.00761 11.2197 5.14826C11.079 5.28891 11 5.47968 11 5.67859V13.9286C11 14.0608 11.035 14.1906 11.1014 14.3049C11.1678 14.4193 11.2632 14.514 11.378 14.5796L16.628 17.5796C16.8003 17.6727 17.0022 17.6947 17.1905 17.641C17.3788 17.5872 17.5386 17.4619 17.6358 17.2919C17.7329 17.1219 17.7597 16.9206 17.7104 16.731C17.6612 16.5415 17.5397 16.3787 17.372 16.2776L12.5 13.4936V5.67859Z" fill="#00325A" fill-opacity="0.5"/>
<path d="M12.5 24.4286C15.6826 24.4286 18.7348 23.1643 20.9853 20.9139C23.2357 18.6634 24.5 15.6112 24.5 12.4286C24.5 9.24599 23.2357 6.19374 20.9853 3.94331C18.7348 1.69287 15.6826 0.428589 12.5 0.428589C9.3174 0.428589 6.26516 1.69287 4.01472 3.94331C1.76428 6.19374 0.5 9.24599 0.5 12.4286C0.5 15.6112 1.76428 18.6634 4.01472 20.9139C6.26516 23.1643 9.3174 24.4286 12.5 24.4286ZM23 12.4286C23 15.2134 21.8938 17.8841 19.9246 19.8532C17.9555 21.8223 15.2848 22.9286 12.5 22.9286C9.71523 22.9286 7.04451 21.8223 5.07538 19.8532C3.10625 17.8841 2 15.2134 2 12.4286C2 9.64382 3.10625 6.9731 5.07538 5.00397C7.04451 3.03484 9.71523 1.92859 12.5 1.92859C15.2848 1.92859 17.9555 3.03484 19.9246 5.00397C21.8938 6.9731 23 9.64382 23 12.4286Z" fill="#00325A" fill-opacity="0.5"/>
</svg>
