<svg width="25" height="24" viewBox="0 0 25 24" fill="none" xmlns="http://www.w3.org/2000/svg">
<path d="M23.7243 8.49894L16.5296 7.45331L13.3133 0.932996C13.2255 0.754473 13.081 0.609955 12.9024 0.522111C12.4547 0.301083 11.9106 0.485273 11.6868 0.932996L8.47055 7.45331L1.27582 8.49894C1.07746 8.52728 0.896105 8.62079 0.757255 8.76248C0.589392 8.93501 0.496892 9.16713 0.50008 9.40783C0.503268 9.64852 0.601883 9.87811 0.774257 10.0461L5.97974 15.1213L4.74992 22.2877C4.72108 22.4544 4.73953 22.6258 4.80317 22.7826C4.86681 22.9393 4.97311 23.0751 5.10999 23.1745C5.24688 23.274 5.40889 23.333 5.57764 23.3451C5.74639 23.3571 5.91514 23.3216 6.06475 23.2426L12.5001 19.8592L18.9354 23.2426C19.1111 23.3361 19.3151 23.3673 19.5106 23.3333C20.0037 23.2483 20.3352 22.7807 20.2502 22.2877L19.0204 15.1213L24.2259 10.0461C24.3675 9.90729 24.4611 9.72593 24.4894 9.52757C24.5659 9.03168 24.2202 8.57262 23.7243 8.49894Z" fill="#FAB400"/>
</svg>
